<?xml version="1.0" encoding="utf-8"?>
<!-- Generator: Adobe Illustrator 23.0.3, SVG Export Plug-In . SVG Version: 6.00 Build 0)  -->
<svg version="1.1" id="Capa_1" xmlns="http://www.w3.org/2000/svg" xmlns:xlink="http://www.w3.org/1999/xlink" x="0px" y="0px"
	 viewBox="0 0 1200 1200" enable-background="new 0 0 1200 1200" xml:space="preserve">
<g>
	<path fill="#85C4DC" d="M807.593,418.082c5.113-5.008,16.717,0.592,20.893,3.499c5.193,3.615,11.367,9.832,8.96,16.739
		c-0.141,0.405-0.31,0.764-0.474,1.132c-0.469,0.453-0.792,0.978-0.784,1.496C827.38,455.233,798.049,433.166,807.593,418.082z
		 M784.053,415.643c0.03-0.593,0.567-1.219,1.155-1.688c0.693-1.306,1.164-2.88,1.333-4.775
		c1.029-11.567-23.658-23.885-31.575-14.411C747.215,410.621,775.271,425.8,784.053,415.643z M606.444,299.015
		c2.388,6.748,11.444,16.711,18.748,11.135c10.366-7.914-1.797-32.83-14.112-34.176
		C604.198,279.276,604.496,293.511,606.444,299.015z M955.352,546.878c7.21-4.984,2.688-14.744-1.337-20.58
		c-2.34-3.393-5.218-6.266-8.77-8.358c-1.796-1.058-5.927-3.448-8.508-3.941c-0.568,0.731-1.597,1.358-2.759,1.78
		C924.959,528.086,941.645,556.352,955.352,546.878z M882.268,467.837c0.021-0.039,0.055-0.078,0.083-0.117
		c0.594-0.777,1.139-1.657,1.606-2.688c3.265-7.208-3.344-13.755-8.808-17.512c-4.333-2.978-15.598-8.233-20.789-3.286
		C845.976,459.021,872.201,480.701,882.268,467.837z M977.494,631.233c1.987,6.266,12.02,17.778,19.02,10.112
		c7.571-8.291-0.497-31.385-11.214-33.634C976.864,609.44,975.482,624.888,977.494,631.233z M996.514,661.13
		c-3.76,2.595-6.683,9.961-7.447,13.195c-1.06,4.491-0.85,9.179,0.786,13.525c1.698,4.509,8.203,11.731,13.344,10.933
		c0.097-0.024,0.196-0.041,0.293-0.062c1.651-0.361,3.15-1.569,4.276-4.035c4.659-10.195,3.246-29.361-8.623-34.252
		C998.311,660.757,997.395,661,996.514,661.13z M590.446,249.173c2.159,5.27,12.501,17.133,19.463,10.993
		c4.584-4.044,2.281-13.951,0.626-18.976c-2.005-6.085-8.449-15.653-15.895-16.488C587.411,228.144,588.191,243.667,590.446,249.173
		z M920.867,503.626c13.898-7.267-8.462-34.431-21.292-29.816C888.782,484.681,906.344,511.22,920.867,503.626z M981.575,591.022
		c6.497-9.12-4.193-32.229-15.631-32.593c-8.438,3.298-7.042,19.254-3.972,25.218C964.723,588.99,975.935,598.939,981.575,591.022z
		 M361.435,179.955c-2.189-6.068-13.885-17.608-18.875-7.668c-4.482,8.927-1.293,29.516,10.232,32.33
		C362.396,203.223,363.871,186.71,361.435,179.955z M323.767,332.175c3.311-5.09,4.048-11.687,1.628-17.311
		c-7.086-16.467-31.416,8.269-25.769,21.887C306.076,344.809,319.061,339.409,323.767,332.175z M280.681,361.399
		c3.301-5.136,3.963-11.891,1.566-17.541c-7.289-17.188-31.656,8.339-25.71,22.039C263.17,374.16,275.837,368.938,280.681,361.399z
		 M500.95,78.639c-0.081-1.011,0.486-2.084,1.301-2.824c0.026-0.079,0.061-0.144,0.086-0.224
		c3.87-12.309-21.267-26.779-30.662-18.025C463.394,72.757,492.394,92.292,500.95,78.639z M577.78,154.277
		c8.171-9.28-8.52-32.751-20.381-31.453c-0.238,0.178-0.494,0.347-0.778,0.502c-5.318,5.028-3.818,16.344-0.968,22.026
		C558.762,151.549,570.926,162.061,577.78,154.277z M542.818,112.725c12.047-8.23-10.353-33.494-22.527-28.787
		c-0.201,0.18-0.387,0.371-0.565,0.567c-0.216,0.742-0.694,1.446-1.31,1.957c-3.006,6.252,0.921,16.637,4.64,21.01
		C527.573,112.784,536.285,117.188,542.818,112.725z M399.713,99.636c4.699-4.827,6.609-12.141,4.129-18.511
		c-6.167-15.842-31.262,6.599-26.955,20.048C382.112,108.24,394.461,105.031,399.713,99.636z M451.641,59.119
		c-4.901-13.874-31.076-2.594-32.344,9.205C423.366,86.691,458.374,78.181,451.641,59.119z M371.114,135.104
		c1.37-5.229,0.364-13.338-4.55-16.835c-12.11-8.619-24.49,20.371-17.402,30.076C357.8,154.237,369.06,142.943,371.114,135.104z
		 M320.388,1107.308c-1.542-0.238-2.936-0.834-2.923-2.602c0.177-25.968,0.354-51.936,0.531-77.904
		c-0.103,0.584-0.181,1.168-0.311,1.753c-0.603,2.713-2.027,6.547-4.688,7.739c-3.714,10.123-6.49,20.613-6.278,31.494
		c0.153,7.865,4.745,14.044,4.759,21.683c0.008,4.696-5.229,17.29-12.685,14.038c-1.132-0.494-1.843-1.238-2.325-2.102
		c-6.471,0.539-7.527-3.624-4.155-9.306c1.202-2.026,2.464-3.311,3.03-5.684c1.074-4.505,0.559-9.398,0.137-13.945
		c-0.031-0.337,0.129-0.633,0.355-0.903c-0.405-2.272-0.831-4.57-1.195-6.93c-0.511-3.312-0.735-6.544-0.712-9.72
		c-0.063-0.107-0.153-0.188-0.19-0.319c-3.038-10.72-4.275-21.708-3.786-32.831c-1.252-1.153-2.022-2.672-2.45-4.371
		c0.129,16.419,0.258,32.838,0.386,49.258c0.071,9.032,3.628,28.655,0.008,37.032c-0.832,1.925-8.725,7.235-7.399,5.757
		c-6.965,7.761-1.344,16.008,7.996,15.178c1.26-0.112,3.748,0.171,4.041,1.808c1.181,10.82,7.699,11.15,19.553,0.991
		c-0.217-2.487,2.774-4.211,4.999-4.23C329.332,1119.919,330.433,1114.624,320.388,1107.308z M261.776,963.727
		c-8.371-3.935-14.852-4.405-23.676-5.104c-2.337-0.185-4.948,0.063-6.746-1.637c-0.252-0.238-0.222-0.724-0.018-0.978
		c2.574-3.19,5.378-7.053,8.395-9.634c0.926-0.793,2.272-1.101,3.441-0.746c-3.516-10.204-16.674-15.763-15.39,0.389
		c0.138,1.739-4.356,2.707-5.365,2.864c-13.069,2.026-7.359,22.22,4.237,21.341c0.414-0.031,2.479-0.234,2.558,0.592
		c0.502,5.229,5.213,19.744,13.846,6.728c1.279-1.929,5.243-2.83,7.391-2.633c10.528,0.966,21.057,1.932,31.585,2.898
		C276.059,972.119,269.326,967.277,261.776,963.727z M346.846,664.386c6.078,9.54,19.908,4.084,24.089-4.278
		c2.259-4.52,2.584-10.405,0.413-15.06C363.992,629.275,342.771,652.523,346.846,664.386z M299.277,721.854
		c-0.251-0.007-0.524-0.03-0.813-0.067c-1.75,0.026-3.258,1.096-4.564,3.686c-4.345,8.614-3.473,25.355,5.906,30.773
		c1.46-0.611,3.213-0.731,4.554-0.187c3.532-2.634,6.209-9.485,6.807-12.549c0.795-4.074,0.341-8.476-1.364-12.27
		c-1.267-2.821-3.252-5.357-5.795-7.141C302.259,722.871,300.695,722.076,299.277,721.854z M307.605,703.634
		c7.204,7.323,18.775-1.21,21.615-8.704c1.953-5.152,1.457-12.141-2.206-16.545C317.554,667.011,301.065,693.589,307.605,703.634z
		 M996.682,730.697c-0.79,3.908-0.533,8.141,0.909,11.87c2.335,6.042,11.671,15.243,16.877,6.947
		c5.369-8.554,5.776-28.538-5.25-33.266C1002.602,716.116,997.749,725.419,996.682,730.697z M295.43,875.39
		c0.152,2.001-5.191,2.973-6.482,3.014c-15.557,0.487-1.482,17.672,3.294,18.867c0.37,0.036,0.638,0.213,0.804,0.531
		c-0.159,15.339-0.318,30.678-0.477,46.017c-0.025,2.373-5.827,3.034-7.454,3.043c-13.285,0.079-26.57,0.158-39.855,0.237
		c15.172,4.754,29.387,13.586,45.371,14.702c1.523-4.857,4.424-8.178,10.274-9.111c7.968-1.271,12.005,3.428,13.864,9.901
		c14.9-3.049,27.274-11.961,41.629-16.206c-13.111,0-26.222,0-39.332,0c-0.204,0-1.58-0.093-1.585-0.621
		c-0.159-15.021-0.318-30.042-0.477-45.063c-0.013-1.208,2.088-1.916,2.962-2.22c10.25-3.568,11.979-22.832-4.219-21.508
		c-0.457,0.037-2.429,0.237-2.558-0.592c-0.047-3.77-1.516-6.995-4.408-9.675C298.191,867.068,294.408,869.963,295.43,875.39z
		 M375.61,950.878c0.451,0.425,0.8,1.057,0.45,1.681c-3.171,5.66-16.31,5.921-21.67,7.362c-12.825,3.449-22.853,9.933-31.475,18.947
		c9.343-4.006,19.058-7.35,29.366-7.296c4.157,0.022,8.191,0.602,12.161,1.853c5.367,1.691,16.036,11.78,16.9-0.46
		c0.129-1.823,4.1-2.652,5.365-2.864c9.482-1.584,6.715-10.897,3.935-15.039c-2.258-3.365-5.798-5.12-9.745-5.669
		c-0.37-0.036-0.638-0.213-0.804-0.531c0.604-7.107-10.916-23.738-13.691-6.541c0.694-0.023,1.455,0.239,1.844,0.76
		C370.404,945.972,373.019,948.432,375.61,950.878z M577.898,195.638c2.654,5.52,9.344,11.869,16.187,10.438
		c14.484-3.03,0.357-33.79-12.687-33.864C573.847,175.398,575.259,190.149,577.898,195.638z M547.418,1040.621
		c-0.05,0.313-0.246,0.623-0.522,0.92c-0.283,0.567-0.543,1.17-0.763,1.833c-4.069,12.224,21.17,26.835,30.521,18.138
		C584.93,1046.355,555.962,1026.721,547.418,1040.621z M502.301,1007.458c-6.883,6.284-0.096,14.717,5.285,19.189
		c4.056,3.371,15.538,9.374,21.027,5.053C537.442,1018.544,515.022,995.845,502.301,1007.458z M715.635,1072.536
		c-7.931,1.247-16.054,11.257-10.901,19.107c6.154,9.376,28.52,8.803,32.407-2.174
		C738.026,1079.373,724.645,1071.119,715.635,1072.536z M595.643,1064.514c-3.902,12.901,22.673,24.674,31.409,15.915
		C634.952,1064.162,601.527,1045.064,595.643,1064.514z M646.162,1080.06c-1.343,13.443,26.439,21.718,33.089,9.978
		C684.439,1071.589,648.29,1058.761,646.162,1080.06z M502.268,746.818c4.466-4.688,5.982-11.68,3.75-17.758
		c-5.913-16.097-28.9,5.71-24.595,18.453C486.314,754.276,497.112,752.229,502.268,746.818z M472.815,777.709
		c0.938-4.897-0.508-12.28-4.963-15.43c-11.47-8.109-21.744,19.982-14.768,28.726C461.552,796.479,471.333,785.442,472.815,777.709z
		 M240.894,389.965c3.318-5.067,4.058-11.667,1.638-17.274c-7.05-16.335-31.376,8.26-25.778,21.863
		C223.184,402.594,236.201,397.132,240.894,389.965z M519.81,715.171c0.157,0.145,0.302,0.293,0.413,0.451
		c5.542,5.695,15.903,3.15,20.614-2.669c3.856-4.763,5.07-11.264,2.965-17.041c-5.976-16.401-29.016,5.66-24.578,18.51
		C519.413,714.682,519.606,714.935,519.81,715.171z M447.906,873.219c-2.177-6.28-11.732-15.648-16.847-6.707
		c-4.665,8.154-2.413,26.512,7.513,30.258c0.77-0.299,1.581-0.48,2.351-0.53c3.979-2.05,6.779-8.468,7.611-11.93
		C449.407,880.674,449.127,876.739,447.906,873.219z M1008.651,775.279c-6.277-1.041-11.99,7.713-13.564,12.535
		c-1.357,4.157-1.584,8.957-0.245,13.149c2.044,6.398,10.091,15.438,16.307,8.224
		C1018.087,801.136,1018.785,781.098,1008.651,775.279z M762.777,1066.104c-4.455,3.763-7.738,11.094-6.24,16.987
		c4.381,17.235,32.332,4.917,32.53-9.135C786.605,1063.63,770.589,1059.507,762.777,1066.104z M809.325,1051.177
		c-2.874,4.488-3.996,10.788-2.122,15.914c6.599,18.05,32.371-3.441,29.112-17.212
		C830.852,1039.186,814.884,1042.498,809.325,1051.177z M857.174,1021.253c-4.748,5.056-6.477,12.584-3.665,19.021
		c6.694,15.326,30.856-7.726,26.489-20.867C874.665,1012.33,862.361,1015.729,857.174,1021.253z M927.408,950.385
		c-1.049,4.942,0.216,11.517,3.825,15.347c10.778,11.434,27.172-18.815,18.918-29.406
		C941.059,928.892,929.124,942.302,927.408,950.385z M899.289,984.993c-4.748,4.979-6.493,12.413-4.025,18.886
		c6.378,16.726,31.569-6.51,26.904-20.21C916.779,976.351,904.757,979.259,899.289,984.993z M439.53,842.809
		c5.473,1.897,11.269-5.652,13.078-9.887c1.619-3.788,2.141-8.203,1.246-12.226c-0.809-3.641-4.086-9.401-8.089-11.177
		c-0.638-0.059-1.366-0.232-1.996-0.532c-1.093-0.082-2.216,0.167-3.339,0.872C431.496,815.471,430.736,837.156,439.53,842.809z
		 M377.721,443.936c-6.506,0.777-14.261,7.539-11.393,14.911c3.935,10.115,25.365,11.208,30.306,1.837
		C398.011,451.247,386.435,442.895,377.721,443.936z M327.519,453.997c-5.574,3.462-9.356,11.605-7.683,18.159
		c4.232,16.576,31.131,3.285,31.034-9.859C348.553,453.158,335.159,449.253,327.519,453.997z M559.424,679.645
		c0.262,0.198,0.484,0.423,0.637,0.682c7.363,7.58,19.069-0.127,22.241-8.372c1.809-4.703,1.508-10.791-1.057-15.233
		c-8.506-14.729-27.646,11.322-22.051,22.678C559.268,679.492,559.349,679.556,559.424,679.645z M414.644,455.027
		c0.117,0.593-0.126,1.278-0.79,1.895c-0.326,0.303-0.721,0.548-1.124,0.781c-0.154,0.281-0.317,0.546-0.46,0.85
		c-5.859,12.404,18.116,27.389,27.186,18.586c0.033-0.052,0.069-0.105,0.118-0.16C447.067,463.31,424.793,444.258,414.644,455.027z
		 M245.145,484.163c-6.985-0.472-14.861,4.744-15.655,12.05c0.2,0.315,0.162,0.656-0.038,1.001
		c-0.014,0.731,0.017,1.472,0.152,2.236c2.29,12.944,27.272,15.668,32.553,4.318C263.887,494.772,253.891,484.754,245.145,484.163z
		 M197.003,444.298c5.667-0.516,10.889-7.022,12.781-11.489c1.735-4.097,2.324-8.846,1.296-13.195
		c-1.317-5.573-7.343-14.914-14.064-10.566c-9.5,6.146-12.386,27.253-3.564,34.71c0.872,0.352,1.746,0.531,2.615,0.556
		C196.389,444.289,196.704,444.281,197.003,444.298z M198.541,458.901c-11.685,6.491,1.745,33.365,13.842,35.024
		c0.213-0.139,0.427-0.277,0.625-0.435c-0.478-0.988,1.333-2.236,2.337-2.779c3.303-5.72,2.803-15.378,1.006-20.15
		C213.996,464.305,205.809,454.864,198.541,458.901z M306.42,478.638c-0.094-0.12-0.135-0.242-0.196-0.363
		c-8.125-13.242-36.235-1.676-28.721,15.299c6.036,13.637,29.63-0.421,30.208-11.843c-0.31-1.117-0.718-2.128-1.219-3.027
		C306.47,478.679,306.441,478.664,306.42,478.638z M550.365,511.002c-12.4,5.314,3.246,30.71,14.587,30.822
		c5.937-3.876,5.061-15.562,2.555-20.926C565.028,515.593,557.052,508.136,550.365,511.002z M592.882,568.782
		c-1.949-5.6-8.12-13.063-14.961-12.347c-13.447,1.407-2.369,30.962,9.678,32.906c0.785-0.432,1.693-0.736,2.595-0.867
		C594.789,584.43,594.41,573.172,592.882,568.782z M589.731,644.392c0.169,0.024,0.337,0.06,0.506,0.103
		c5.138,0.206,9.61-6.817,11.108-10.899c1.437-3.915,1.685-8.258,0.61-12.293c-0.977-3.665-4.757-9.647-8.92-11.225
		c-1.094,0.176-2.169,0.1-2.996-0.276c-0.836,0.179-1.664,0.571-2.465,1.277C579.609,618.094,580.089,639.088,589.731,644.392z
		 M501.514,492.76c-0.012,0.218-0.066,0.425-0.167,0.621c-0.171,0.7-0.31,1.43-0.378,2.225
		c-1.094,12.919,24.327,17.138,30.252,7.288C535.376,486.226,506.071,477.444,501.514,492.76z"/>
	<path fill="#6493A5" d="M705.628,360.896c2.053,10.731-4.886,24.864-17.748,23.594c-14.712-1.453-20.807-19.347-16.267-30.996
		c1.082-0.759,1.691-1.694,1.268-2.581c2.783-4.728,7.721-7.857,15.03-7.314C696.784,345.231,703.915,351.947,705.628,360.896z
		 M366.835,252.4c-6.98-3.169-16.518,0.049-20.438,6.645c-1.939,3.263-3.037,7.197-3.043,10.991
		c-0.013,7.793,4.185,15.294,10.957,19.21c0.326,0.189,0.694,0.301,1.036,0.462c0.118,0.038,0.209,0.089,0.308,0.137
		c6.525,2.879,15.551,0.981,19.761-4.768c2.781-3.797,3.984-7.936,4.237-12.62C379.186,263.777,374.955,256.087,366.835,252.4z
		 M295.825,981.329c-0.277-1.153-0.413-2.328-0.407-3.401c0.023-4.274,2.278-9.808,7.261-9.965c5.099-0.16,6.745,5.575,6.894,9.656
		c-0.057,1.559-0.384,3.294-1.008,4.878c0.75-0.449,1.795-0.697,2.652-0.538c0.656-5.062,0.949-11.446-0.253-16.814
		c-0.478-0.145-0.496-0.502-0.206-0.907c-0.867-3.304-2.355-6.146-4.764-7.92c-10.401-7.663-12.186,9.197-12.228,14.244
		c-0.022,2.588,0.108,7.185,1.124,10.889C295.21,981.375,295.524,981.338,295.825,981.329z M306.225,1004.621
		c4.817-1.06,4.4-6.806,4.834-10.904c0.41-3.875-0.023-6.559-3.072-9.395c-0.099-0.093-0.113-0.188-0.169-0.283
		c-1.21,2.075-3.082,3.598-5.798,3.537c-1.758-0.04-3.108-0.812-4.122-1.96c0.009,0.607-0.049,1.183-0.329,1.614
		c-0.545,0.838-2.027,1.357-3.185,1.221c-1.229,3.963-2.496,9.115-0.896,12.752C295.264,1005.238,302.467,1005.447,306.225,1004.621
		z M300.034,1025.748c-1.802-1.257-3.625-1.429-5.512-1.838c-0.117,5.859,0.278,11.652,1.171,17.389
		c1.235-4.921,3.097-9.754,5.568-14.562C300.877,1026.385,300.471,1026.053,300.034,1025.748z M306.457,1007.788
		c-3.883,0.592-9.997,0.829-13.995-1.38c-0.94,3.006-1.437,6.396-0.439,9.102c1.691,4.584,5.148,4.919,9.217,6.579
		c1.772,0.723,3.169,1.808,4.394,3.071c0.004,0.003,0.006,0.008,0.01,0.011c1.707,1.762,3.071,3.88,4.566,5.933
		c0.103,0.141,1.583,2.488,1.897,2.423c0.136-0.028,0.824-3.5,0.881-3.759c0.44-1.974,0.792-3.963,0.979-5.977
		c0.577-6.216-0.441-12.243-2.304-18.108C310.387,1006.738,308.713,1007.444,306.457,1007.788z M304.228,1030.251
		c-0.088-0.121-0.178-0.238-0.267-0.358c-4.728,10.338-6.693,21.041-4.977,32.55c1.283,8.605,3.543,16.849,2.882,25.515
		c-0.799,3.206-1.313,6.465-1.543,9.775c2.112-1.238,4.223-2.476,6.334-3.715c1.141-2.085-0.158-7.151-0.787-9.509
		c-1.506-5.651-3.704-9.144-3.795-15.436c-0.165-11.407,2.775-22.485,6.724-33.079
		C306.733,1034.81,305.54,1032.065,304.228,1030.251z M300.007,977.619c0.01,1.161,0.59,6.197,2.493,6.363
		c2.177,0.19,2.438-4.761,2.485-6.054c-0.049-1.342-0.52-6.081-2.493-6.363C300.413,971.268,299.995,976.309,300.007,977.619z
		 M289.831,964.968c0.002-0.01,0.005-0.019,0.006-0.029c-15.265-0.783-28.749-8.414-42.984-13.521
		c0.103,0.347,0.203,0.676,0.299,0.962c0.533,1.582-3.965,2.857-4.52,1.211c-0.804-2.385-0.821-3.29-0.782-3.552
		c-0.051,0.109-0.191,0.282-0.543,0.401c0.375-0.128-2.449,3.312-2.242,2.726c-1.159,3.277-1.209,2.253,3.37,2.861
		c6.366,0.845,11.662,0.997,17.901,3.36c11.441,4.333,21.354,11.572,29.639,20.43c-0.135-0.78-0.249-1.515-0.343-2.116
		C288.975,973.498,289.057,969.15,289.831,964.968z M313.762,849.223c0.863,0.091,1.888,0.482,2.381,1.136
		c1.495,0.588,3.1,1.008,4.842,1.176c12.816,1.243,19.75-12.651,17.781-23.472c-1.414-7.772-7.061-13.746-14.268-16.256
		c-1.963,0.663-4.279,0.482-5.406-0.963C299.265,811.214,298.825,840.54,313.762,849.223z M297.485,1100.117
		c-0.248-6.214,1.055-12.929,2.333-18.882C295.109,1089.623,291.842,1097.764,297.485,1100.117z M367.559,950.242
		c-2.328-6.294-1.428-2.9-2.535,0.385c-0.694,2.059-5.212,1.914-4.353-0.636c0.328-0.972,0.626-1.936,0.968-2.85
		c-16.417,3.061-29.984,13.673-46.362,17.398c1.133,5.338,1.005,11.516,0.444,16.546c7.892-9.39,17.19-17.259,28.902-21.726
		c3.472-1.324,7.051-2.305,10.643-3.237c3.097-0.804,10.185-1.021,12.67-3.026c0.417-0.336,0.748-0.561,1.033-0.733
		C368.531,952.109,368.025,951.501,367.559,950.242z M465.969,937.145c-3.379-0.155-6.275,0.435-8.696,1.583
		c-0.6,1.149-2.093,2.065-3.706,2.48c-10.597,9.687-6.299,33.347,11.337,35.769c12.78,1.755,20.341-11.914,18.341-23.016
		C481.642,945.068,474.578,938.856,465.969,937.145z M985.157,860.187c-24.204-1.8-25.332,35.592-2.596,38.633
		C1006.709,902.048,1007.54,864.302,985.157,860.187z M414.203,575.789c-21.129-1.09-23.636,27.111-9.181,36.592
		c0.232,0.114,0.438,0.246,0.621,0.396c2.092,1.252,4.509,2.133,7.262,2.49c12.694,1.647,20.383-11.698,18.385-22.849
		C429.706,583.577,422.7,577.53,414.203,575.789z M487.113,512.22c2.669,15.947-4.563,31.743-14.596,43.722
		c-8.965,10.704-24.069,17.513-37.349,11.426c-15.138-6.939-17.424-20.63-15.685-35.924c1.96-14.655,8.709-28.684,20.786-37.662
		c13.414-9.972,31.25-12.909,40.959,2.6C484.173,501.082,486.199,506.757,487.113,512.22z M450.679,528.672
		c0.664-1.373-5.81-0.807-6.719,1.073c-4.881,10.095-6.937,20.903-5.991,32.083c0.134,1.588,6.958,0.289,6.779-1.817
		C443.821,549.044,445.904,538.548,450.679,528.672z M480.689,506.607c-5.803-9.957-9.989-14.613-22.165-10.957
		c-11.397,3.421-20.168,12.939-29.751,19.586c-1.214,0.843,4.794,0.238,6.096-0.665c5.415-3.757,10.656-8.846,16.326-12.137
		c4.524-2.625,17.178-3.863,20.3,0.999c0.683,1.064,0.779,2.25,1.008,3.383c-16.034,2.15-32.297,7.797-40.683,22.531
		c-0.423,0.743,5.719,0.457,6.678-1.228c1.723-3.027,3.785-5.58,6.091-7.767c0.439,0.028,0.927,0.005,1.488-0.109
		c4.07-0.831,8.155-1.134,12.22-1.011c-6.18,5.664-9.33,13.87-7.987,22.456c0.014,0.09,0.089,0.137,0.118,0.218
		c-0.131,0.941-0.122,2.046,0.034,3.44c0.596,5.316,2.761,10.041,5.865,14.338c1.099,1.521,7.158-1.293,6.779-1.817
		c-4.968-6.877-7.417-13.811-3.889-20.658c5.38,1.854,11.414-0.249,15.557-4.577c3.489-3.644,5.471-10.19,7.363-14.607
		C484.677,512.097,483.761,511.877,480.689,506.607z M464.882,519.819c2.667,0.399,5.313,0.989,7.932,1.752
		c-1.484,4.908-2.911,17.978-11.083,11.293c-0.881-0.72-3.049-0.183-4.69,0.573C457.775,528.083,460.508,523.189,464.882,519.819z
		 M465.096,523.265c-0.261,0.195-0.525,0.433-0.567,0.772c-0.011,0.086,0.041,0.138,0.057,0.21c0.002,0.06,0.023,0.109,0.044,0.163
		c0.029,0.05,0.05,0.103,0.094,0.145c0.071,0.083,0.181,0.14,0.318,0.188c0.073,0.028,0.148,0.05,0.232,0.069
		c0.038,0.005,0.052,0.025,0.093,0.028c0.057,0.004,0.114,0.008,0.171,0.011c0.008,0.001,0.023,0,0.032,0
		c0.382,0.036,0.81,0.011,1.257-0.079c1.073-0.15,2.33-0.534,2.372-1.368c0.016-0.318,0.025-0.474-0.208-0.717
		C468.108,521.771,465.893,522.671,465.096,523.265z M473.394,508.981c-8.281,0.879-16.315,2.853-23.042,6.966
		c8.456-1.11,16.909-0.686,25.196,1.517c1.099-1.354,2.112-2.761,2-3.797C477.209,510.514,474.96,511.188,473.394,508.981z"/>
	<path fill="#43626E" d="M478.991,511.041v-0.002c-5.651-9.695-10.362-15.75-23.962-11.666c-8.265,2.483-15.131,8.004-21.772,13.343
		c-2.746,2.209-5.585,4.492-8.419,6.457l-1.426,1.132l0.888,1.283c1.246,1.797,7.384,0.195,8.414-0.518
		c2.251-1.561,4.493-3.365,6.661-5.109c3.098-2.492,6.301-5.069,9.558-6.959c4.419-2.564,15.826-3.212,18.203,0.492
		c0.235,0.364,0.373,0.774,0.481,1.226c-19.894,2.964-33.054,10.522-40.198,23.073l-0.449,0.911l0.454,0.777
		c0.536,0.917,1.7,1.025,2.801,1.031c0.535-0.003,5.27-0.097,6.583-2.404c1.476-2.594,3.232-4.88,5.36-6.973
		c0.385-0.015,0.775-0.064,1.176-0.146c2.664-0.544,5.427-0.868,8.251-0.97c-1.514,1.806-2.763,3.765-3.735,5.832
		c-0.641-0.25-1.505-0.334-2.591-0.25c-0.774,0.056-4.682,0.454-5.759,2.685v-0.002c-5.04,10.425-7.107,21.49-6.141,32.893
		c0.066,0.775,0.541,1.426,1.304,1.785c0.524,0.245,1.197,0.355,1.93,0.355c1.784,0,3.927-0.643,5.159-1.5
		c1.417-0.987,1.544-2.126,1.494-2.717c-0.608-7.197,0.116-14.289,2.155-21.187c0.04,1.071,0.143,2.148,0.312,3.228l0.059,0.241
		c-0.091,0.966-0.062,2.047,0.084,3.357c0.586,5.226,2.599,10.158,6.152,15.078c0.422,0.583,1.295,1.243,3.11,1.059
		c1.84-0.189,5.7-1.569,6.358-3.036l0.366-0.938l-0.527-0.73c-5.03-6.964-6.414-12.683-4.297-17.877
		c5.371,1.238,11.439-0.783,15.829-5.365c2.935-3.068,4.783-7.788,6.413-11.954c0.433-1.106,0.847-2.163,1.255-3.118
		c2.464-5.75,1.913-7.072-0.583-11.22L478.991,511.041z M463.325,538.298c-1.129,0.385-2.608-0.567-3.653-1.421
		c-0.624-0.512-1.418-0.698-2.242-0.698c-0.455,0-0.92,0.058-1.372,0.148c0.749-2.734,2.075-5.237,3.892-7.36
		c-0.006,0.032-0.011,0.065-0.014,0.097l-0.02,0.574l0.131,0.294c0.043,0.154,0.105,0.3,0.18,0.465l0.256,0.376
		c0.244,0.292,0.568,0.507,0.964,0.649c0.14,0.052,0.28,0.094,0.565,0.151l0.363,0.049c0.541,0.053,1.113,0.015,1.624-0.087
		c2.047-0.288,2.985-1.04,3.401-1.77C466.621,532.963,465.372,537.61,463.325,538.298z M467.72,528.445
		c0.002-0.181-0.012-0.393-0.072-0.623c0.07,0.018,0.14,0.037,0.21,0.056C467.813,528.063,467.767,528.251,467.72,528.445z
		 M471.904,520.917c-5.093-1.266-10.342-1.901-15.692-1.901c-0.264,0-0.527,0.002-0.791,0.005c4.148-1.506,8.874-2.557,14.269-3.179
		c0.656,0.676,1.34,1.071,1.918,1.403c0.914,0.524,1.223,0.702,1.343,1.802C472.953,519.201,472.841,519.665,471.904,520.917z
		 M1013.837,774.814c-0.228-0.178-0.5-0.335-0.893-0.501l0.04-10.059c7.616-3.72,12.615-13.073,12.828-24.188
		c0.225-11.699-4.911-21.691-12.886-25.349c-0.359-0.233-0.771-0.422-1.212-0.568c-0.628-0.245-1.359-0.367-1.907-0.321
		c-0.362-0.037-0.719-0.069-1.075-0.093l-1.557-6.586c5.121-3.062,8.539-8.257,9.916-15.107c2.065-10.287-0.661-27.353-13.072-31.31
		c-0.186-0.058-0.353-0.078-0.457-0.084c-0.338-0.114-0.74-0.181-1.231-0.207c-0.819-0.046-1.679-0.043-2.589,0.009l-1.8-6.195
		c6.534-4.123,9.651-12.493,8.374-22.695c-1.334-10.641-7.93-23.335-19.277-26.182c-0.71-0.324-1.587-0.458-2.528-0.448l-0.786-1.98
		c6.352-4.449,8.67-12.709,6.202-22.4c-2.949-11.591-12.862-24.135-25.272-24.54c-0.42-0.055-0.841-0.069-1.423-0.041
		c-0.168,0.005-0.335,0.017-0.509,0.037l-1.578-2.597c2.888-2.25,4.615-5.157,5.133-8.664c0.868-5.847-1.837-13.143-7.232-19.516
		c-6.364-7.515-15.384-11.212-24.834-10.217l-4.688-5.924c6.233-7.94,1.749-18.749-4.219-25.813
		c-7.192-8.507-20.797-14.849-32.325-10.323l-2.474-2.067c1.904-3.2,2.343-6.606,1.301-10.143
		c-2.163-7.352-10.522-13.646-17.373-16.382c-8.691-3.47-19.408-3.206-27.006,0.605l-2.924-1.732
		c1.243-2.935,1.316-6.02,0.216-9.192c-2.449-7.057-10.257-13.006-16.91-15.771c-8.137-3.384-20.736-4.161-29.659,1.895l-5.2-2.332
		c1.654-3.523,1.791-7.106,0.405-10.653c-2.723-6.97-10.906-12.188-17.084-14.54c-8.371-3.186-21.178-3.73-29.958,2.408
		c-12.423-3.643-24.295-8.932-35.325-15.731c0.235-0.463,0.457-0.935,0.661-1.42c2.848-6.774,2.641-13.96-0.582-20.234
		c-3.567-6.943-10.568-12.213-18.75-14.127c-0.408-0.19-0.896-0.299-1.404-0.327c-0.262-0.05-0.554-0.064-0.771-0.049
		c-9.264-0.561-18.458,2.271-24.797,7.579c-12.63-9.077-24.304-19.684-34.728-31.559c5.831-5.298,7.323-14.522,3.851-24.557
		c-3.357-9.693-11.948-19.932-23.362-20.234l-0.935-3.813c7.375-3.589,10.869-11.369,9.377-21.099
		c-1.746-11.387-10.452-23.681-22.208-25.399l-0.527-5.882c7.549-2.908,11.43-9.719,10.684-18.886
		c-1.011-12.434-11.034-27.543-23.958-29.988l-2.531-5.543c6.134-4.509,7.85-11.739,4.69-20.054
		c-4.501-11.841-18.337-23.525-31.368-21.958l-3.113-3.549c4.237-5.936,3.363-13.922-2.457-21.652
		c-8.035-10.668-24.109-18.805-35.846-13.41c-0.002,0-0.002,0-0.002,0l-3.339-2.266c2.864-6.842,0.286-13.719-7.212-19.046
		c-11.812-8.39-33.37-10.821-42.332-1.409l-1.083,0.029c-2.663-7.528-10.527-11.369-21.338-10.286
		c-14.846,1.471-31.298,11.605-32.127,24.345c-0.012,0.192-0.014,0.382-0.003,0.567c-6.528-4.961-16.557-3.95-26.613,2.807
		c-10.904,7.331-19.684,20.666-15.398,31.872c0.027,0.093,0.058,0.183,0.091,0.271l-2.157,2.892
		c-10.067-0.372-19.469,8.481-24.378,17.67c-5.657,10.591-5.748,21.391-0.346,28.037c0.332,0.527,0.742,0.967,1.255,1.348
		c0.781,0.577,1.651,1.098,2.638,1.578l0.026,4.649c-8.414,2.405-13.574,9.939-13.887,20.412
		c-0.373,12.566,6.504,27.612,18.449,30.963c0.51,0.227,1.078,0.375,1.464,0.401l0.315,0.055c0.548,0.093,1.11,0.107,1.619,0.052
		c2.701,11.063,4.004,22.296,3.881,33.431c-10.804,2.326-22.791,10.406-22.727,26.153c0.04,9.534,4.201,16.967,11.763,21.116
		c-3.173,5.168-7.334,9.532-12.152,12.74c-5.491-5.87-14.459-6.315-24.317-1.116c-10.95,5.774-20.805,17.826-20.225,28.893
		c-4.493-3.567-10.857-4.189-18.077-1.631c-11.655,4.122-24.001,16.331-24.992,28.259c-8.246-3.659-19.21,0.734-27.01,7.255
		c-9.005,7.534-15.978,19.678-11.342,29.945l-2.428,2.769c-10.754-0.862-19.702,8.542-23.876,18.475
		c-5.025,11.957-3.356,23.548,4.215,29.504l0.186,0.146c0.224,0.174,0.474,0.323,0.76,0.454c1.263,0.571,2.579,1.019,3.927,1.337
		l1.059,6.425c-6.033,5.022-7.695,13.824-4.314,23.247c3.398,9.47,12.399,19.337,24.141,18.73c0.606-0.034,1.423-0.224,2.135-0.498
		c0.612-0.085,1.214-0.209,1.759-0.378c0.582-0.181,1.144-0.39,1.691-0.618l3.217,2.344c-0.026,3.296,1.162,6.242,3.532,8.766
		c4.903,5.217,14.236,7.665,21.311,7.777c8.603,0.158,23.155-3.148,28.332-12.734c5.354,3.832,13.733,4.323,23.033,1.228
		c9.626-3.205,20.455-10.831,22.876-20.415c6.828,2.516,15.32,0.92,18.869,0.05c8.668-2.122,19.072-8.266,23.001-17.067
		c4.818,4.324,11.899,6.035,14.985,6.601c8.093,1.487,19.239-0.024,26.41-5.541c2.062,6.676,9.681,12.319,16.744,14.569
		c7.048,2.242,16.115,1.919,23.001-0.759l2.341,3.199c-19.058,9.217-31.523,26.317-34.32,47.223
		c-1.298,11.409-1.292,27.096,12.053,36.547c-0.529-0.128-1.059-0.239-1.592-0.335c-0.343-0.072-0.727-0.129-1.17-0.163
		c-13.471-1.005-29.077,6.09-32.812,21.585c-2.271,9.43,1.162,19.355,8.775,25.716c-5.488,7.011-11.725,13.418-18.569,19.073
		c-7.978-4.321-19.439-0.164-27.536,6.111c-9.413,7.294-14.071,16.825-12.095,24.893l-5.145,3.071
		c-7.422-3.455-17.387-0.315-25.678,8.172c-7.767,7.951-13.172,20.197-7.834,29.723c0.145,0.44,0.364,0.806,0.533,0.94
		c0.116,0.18,0.253,0.346,0.41,0.501l-2.725,7.549c-9.75,2.978-14.583,13.43-15.047,22.683
		c-0.561,11.147,4.538,20.382,13.005,23.605c0.472,0.306,1.094,0.48,1.925,0.539c0.321,0.023,0.641,0.037,0.96,0.044
		c2.675,7.762,6.318,15.122,9.847,22.249c3.285,6.638,6.675,13.485,9.229,20.577c-10.655,2.346-18.545,8.787-21.795,17.877
		c-4.001,11.185,0.527,23.48,10.786,29.874l-4.091,6.125c-7.203,1.158-14.449,6.05-15.469,14.685
		c-9.23,2.471-13.937,8.202-12.952,15.85c0.577,4.469,3.276,6.941,5.657,9.122c2.114,1.938,4.113,3.767,4.757,6.918
		c1.63,7.974,0.931,17.693,0.253,27.093c-0.216,3.01-0.43,5.96-0.557,8.776l-0.372,0.031c-10.426,0.845-23.411,1.905-29.417-3.691
		c-1.1-1.025-2.03-2.065-2.918-3.052c-2.836-3.158-5.514-6.14-11.497-6.53c-6.102-0.398-11.575,1.363-15.421,4.959
		c-3.221,3.007-5.046,7.032-5.319,11.696c-6.023,1.939-9.867,5.135-11.73,9.742c-1.939,4.787-1.08,10.691,2.135,14.693
		c2.672,3.32,5.535,3.657,7.835,3.927c1.529,0.18,2.736,0.321,3.788,1.24c0.637,0.554,0.937,1.872,1.254,3.267
		c0.568,2.498,1.348,5.921,4.845,7.974c2.699,1.587,6.01,2.119,10.144,1.633c5.578-0.66,10.642-3.212,14.694-7.396l26.413,2.423
		l0.734,93.503c0.015,1.945,0.131,4.029,0.253,6.178c0.408,7.256,0.871,15.48-2.76,20.936c-0.899,1.349-2.017,2.649-3.199,4.024
		c-3.831,4.457-8.172,9.509-4.606,16.907c2.362,4.903,7.828,7.567,15.844,7.744c3.113,8.694,11.549,12.418,19.364,12.417
		c0.65,0,1.299-0.026,1.939-0.076c7.983-0.638,16.549-5.389,18.31-14.58c7.965-1.58,13.249-6.009,14.935-12.56
		c1.931-7.508-1.666-13.974-9.204-16.756l0.807-118.292c0.001-0.387-0.043-0.755-0.133-1.103
		c16.837-7.071,23.481-4.198,39.286,2.623c2.97,1.281,6.038,2.588,9.954,2.408c7.645-0.388,12.187-4.751,13.511-12.971
		c6.253-1.989,9.998-5.261,11.437-9.977c1.42-4.647,0.186-9.649-3.384-13.727c-0.891-1.018-2.029-1.72-3.033-2.338
		c-0.676-0.416-1.316-0.81-1.785-1.237c-2.694-2.452-2.702-2.474-3.037-3.605c-0.241-0.813-0.605-2.041-1.645-4.303
		c-2.886-6.285-8.556-9.652-15.567-9.227c-7.832,0.472-15.178,5.683-17.891,12.555c-10.257,0.739-28.092,1.851-30.783-4.513
		c-0.848-2.008-0.489-7.917-0.251-11.827c0.111-1.822,0.206-3.423,0.195-4.481l-0.216-20.569
		c6.644-3.427,10.435-8.646,10.706-14.778c0.241-5.503-2.212-9.92-6.908-12.437c-0.972-0.522-2.123-0.687-3.139-0.832
		c-0.787-0.113-1.68-0.239-2.062-0.504c-1.392-0.967-1.982-1.843-2.797-3.055c-0.571-0.85-1.219-1.813-2.238-2.938
		c-1.863-2.056-4.28-3.68-7.069-4.761l2.408-3.605c0.187,0.035,0.376,0.065,0.57,0.091c13.782,1.773,27.85-5.762,32.751-17.518
		c2.841-6.813,2.611-14.05-0.647-20.375c-3.57-6.93-10.521-12.193-18.63-14.123c-2.71-8.419-6.635-16.33-10.435-23.987
		c-3.41-6.87-6.929-13.96-9.521-21.346c7.045-3.817,12.08-10.874,13.274-18.724c1.656-10.869-4.688-21.687-14.336-24.983
		l1.158-3.208c8.556,0.909,18.124-3.106,23.44-7.771c8.189-7.189,12.293-20.755,5.138-30.677l4.014-2.394
		c7.607,4.653,19.094,3.025,26.809-0.599c10.703-5.026,18.698-17.076,14.065-28.849c8.013-6.382,15.259-13.637,21.56-21.591
		c1.476,0.457,2.985,0.787,4.499,0.987c14.197,1.881,28.229-6.317,32.674-19.034c3.65-10.447,0.285-21.416-8.569-28.406l0.149-0.169
		c8.38,2.321,17.565,1.985,25.997-0.963c20.68-7.232,38.486-31.478,39.694-54.05c0.168-3.147,0.046-6.24-0.364-9.243
		c3.04,2.102,6.857,3.787,10.99,4.804c8.029,1.983,19.883,1.089,27.717-5.33l1.517,1.243c-3.745,6.117-2.963,14.996,2.184,23.606
		c5.109,8.548,14.915,16.427,25.262,14.734c0.439-0.072,0.856-0.189,0.984-0.26c0.082-0.012,0.163-0.026,0.245-0.041l2.108,3.447
		c-6.058,3.762-8.659,10.897-6.984,19.442c2.128,10.851,11.108,22.516,22.672,24.004l1.741,8.329
		c-7.64,3.209-13.466,11.907-14.688,22.147c-0.952,7.966,1.046,15,5.424,19.681c-8.272,0.762-17.969,6.528-24.244,14.849
		c-5.502,7.297-7,14.982-4.143,21.148l-1.884,1.88c-8.202-3.933-19.404,0.583-27.146,7.057
		c-9.308,7.785-13.565,17.838-11.009,25.824c-8.205-3.726-19.244,0.794-26.858,7.211c-9.534,8.035-13.731,18.481-10.693,26.613
		c0.03,0.081,0.064,0.158,0.101,0.238l-1.717,1.994c-9.485-2.152-19.034,5.151-24.427,13.597
		c-5.232,8.192-8.688,20.753-1.318,29.326l-1.63,6.02c-8.301,1.551-15.37,9.259-18.188,19.967
		c-2.203,8.368-1.642,19.458,6.467,25.656c0.306,0.411,0.757,0.734,1.346,0.964c0.184,0.104,0.382,0.192,0.583,0.262l-0.836,7.41
		c-7.776,2.809-12.821,10.874-13.249,21.338c-0.405,9.881,3.688,21.591,13.736,25.571c0.478,0.286,1.066,0.48,1.735,0.58
		c0.107,0.021,0.215,0.04,0.331,0.055c1.168,12.361,5.15,23.998,11.847,34.629c-4.207,3.678-7.084,8.359-8.352,13.616
		c-1.688,7.011-0.344,14.17,3.784,20.158c4.35,6.31,11.249,10.493,18.925,11.476c4.071,0.521,8.374,0.18,12.517-0.984
		c5.534,8.697,12.105,16.493,19.559,23.202c-2.705,3.267-3.813,6.933-3.289,10.909c1.001,7.619,7.768,14.412,13.766,18.229
		c8.443,5.372,19.579,6.752,28.051,3.554l5.193,4.388c-2.727,6.189-1.095,12.408,4.669,17.628
		c9.498,8.603,29.778,13.107,41.331,6.164l2.562,0.973c-0.8,6.883,3.718,13.27,12.594,17.682
		c12.144,6.042,30.096,6.915,38.273-1.857c0.073,2.768,1.057,5.359,2.937,7.727c4.673,5.881,14.08,9.235,21.331,9.951
		c9.489,0.935,22.281-1.712,28.489-9.652l4.774,0.011c2.495,9.505,14.772,13.188,24.883,13.425
		c10.821,0.203,24.776-4.809,29.288-14.689c0.155-0.218,0.283-0.44,0.387-0.667c5.24,9.026,19.618,7.086,25.839,5.749
		c10.44-2.247,22.226-8.873,25.48-18.692l1.621-0.777c5.054,4.804,13.733,5.323,23.527,1.334
		c11.457-4.666,23.298-15.469,23.326-26.592l0.539-0.37c6.309,5.477,16.35,4.864,26.585-1.726
		c11.125-7.16,20.097-20.214,16.283-31.758l1.106-1.098c7.125,4.17,17.849,2.064,27.798-5.593
		c9.38-7.223,17.035-19.23,12.987-29.775c-0.088-0.228-0.198-0.399-0.25-0.48l-0.268-0.498c-0.804-1.177-1.794-2.245-2.955-3.188
		l0.414-0.489c8.152,2.513,18.205-1.986,25.918-11.741c7.034-8.892,11.271-21.978,4.987-31.278
		c-0.076-0.192-0.171-0.372-0.283-0.542c5.748-8.181,11.037-16.933,15.737-26.051c1.158,0.302,2.254,0.515,3.324,0.647
		c14.412,1.782,28.651-7.304,32.44-20.665c3.534-12.437-2.114-24.587-14.102-30.686c4.963-11.395,8.295-23.504,9.916-36.04
		c9.002-1.513,16.319-9.834,18.829-21.586C1025.855,790.587,1022.098,779.495,1013.837,774.814z M247.546,978.573
		c-2.611-0.25-7.145,0.781-8.831,3.325c-2.19,3.302-4.242,4.909-5.776,4.519c-2.632-0.658-4.848-6.678-5.218-10.534
		c-0.129-1.353-1.232-2.036-3.324-2.036c-0.283,0-0.585,0.014-0.903,0.038c-5.465,0.376-9.406-4.761-9.984-9.791
		c-0.2-1.73-0.349-7.453,6.103-8.454c1.631-0.254,6.932-1.33,6.681-4.528c-0.391-4.914,0.6-7.984,2.72-8.426
		c2.443-0.53,6.499,2.256,8.761,6.624c-0.763,0.201-1.487,0.571-2.104,1.097c-0.149,0.128-0.3,0.26-0.448,0.393
		c-0.257,0.241-0.514,0.481-0.771,0.722c-2.067,2.003-3.982,4.432-5.843,6.795l-1.531,1.928c-0.743,0.92-0.673,2.308,0.157,3.092
		c1.893,1.79,4.312,1.896,6.446,1.991c0.422,0.018,0.839,0.037,1.249,0.069l0.338,0.026c8.588,0.681,14.792,1.171,22.797,4.935
		c5.721,2.688,11.22,6.274,16.395,10.687L247.546,978.573z M267.309,967.541c5.692,1.98,11.553,3.538,17.667,4.056
		c-0.413,2.952-0.495,5.98-0.236,8.984C279.296,975.311,273.467,970.95,267.309,967.541z M322.531,1121.619
		c-0.363,1.951-3.458,3.809-8.722,5.238c-1.86,0.079-3.816,0.976-5.037,2.32c-0.74,0.816-1.174,1.747-1.279,2.731
		c-7.712,6.492-11.474,7.028-13.276,6.315c-1.695-0.672-2.766-2.94-3.196-6.848c-0.391-2.193-2.739-3.119-4.993-3.119
		c-0.242,0-0.484,0.011-0.722,0.032c-3.988,0.346-7.432-1.187-8.801-3.921c-1.209-2.419-0.611-5.346,1.637-8.117
		c2.259-0.99,7.366-4.94,8.137-6.725c0.391-0.906,0.705-1.93,0.952-3.046c0.943,0.961,2.571,1.77,5.384,1.75
		c0.653,0.839,1.493,1.485,2.507,1.928c2.454,1.071,4.973,0.833,7.282-0.682c4.641-3.045,7.593-10.792,7.587-14.788
		c-0.008-4.097-1.24-7.767-2.431-11.317c-1.161-3.458-2.257-6.725-2.329-10.394c-0.177-9.101,1.668-18.487,5.977-30.361
		c0.826-0.487,1.526-1.153,2.12-1.913l-0.471,69.213c-0.009,1.258,0.492,3.417,3.852,4.085
		C320.818,1117.042,322.881,1119.742,322.531,1121.619z M306.066,970.563c0.067,0.198,0.2,0.481,0.458,0.743
		c0.411,2.052,0.602,4.218,0.65,6.349c-1.15-3.342-3.448-6.036-7.323-6.036c-0.088,0-0.177,0.002-0.267,0.005
		c-3.397,0.107-5.866,2.271-7.304,5.164c-0.003-0.361-0.003-0.693,0-0.992c0.04-4.69,1.321-12.738,4.589-14.374
		c1.308-0.649,3.039-0.187,5.154,1.371c1.806,1.333,3.162,3.526,4.032,6.525C305.892,969.858,305.977,970.303,306.066,970.563z
		 M292.508,995.19c1.196-0.174,2.451-0.73,3.185-1.697c0.986,0.541,2.079,0.833,3.247,0.861c2.411,0.047,4.376-0.842,5.953-2.606
		c1.706,2.062,1.88,4.091,1.57,7.023c-0.067,0.624-0.114,1.286-0.161,1.963c-0.297,4.186-0.698,6.975-3.458,7.582
		c-3.675,0.803-9.7,0.375-10.976-2.524C290.615,1002.94,291.463,998.765,292.508,995.19z M303.645,1014.548
		c1.558-0.238,2.905-0.64,4.071-1.219c1.563,5.56,2.103,10.661,1.651,15.535c-0.163,1.765-0.474,3.657-0.947,5.783l-0.078,0.369
		c-0.015,0.073-0.029,0.143-0.044,0.213l-0.868-1.215c-1.11-1.567-2.257-3.188-3.618-4.611l-0.224-0.233
		c-1.497-1.516-3.071-2.599-4.806-3.307c-0.774-0.315-1.525-0.585-2.248-0.844c-2.991-1.069-4.969-1.776-6.094-4.83
		c-0.603-1.636-0.6-3.822-0.003-6.391C295.181,1015.547,301.111,1014.936,303.645,1014.548z M300.413,1087.148
		c0.314,0.94,0.621,1.922,0.905,2.982c1.348,5.055,1.304,7.154,1.057,8.024l-3.25,1.907c0.276-2.218,0.69-4.455,1.251-6.766
		C300.534,1091.229,300.529,1089.178,300.413,1087.148z M297.641,1068.471c-0.055-0.346-0.108-0.692-0.16-1.039
		c-1.462-9.806-0.247-19.338,3.718-29.053c0.743,1.191,1.576,2.448,2.682,3.404C300.255,1051.733,298.224,1060.38,297.641,1068.471z
		 M290.051,1070.094c0.302,1.957,0.646,3.87,0.986,5.764l0.108,0.603c-0.221,0.443-0.309,0.903-0.265,1.372l0.049,0.515
		c0.405,4.344,0.824,8.837-0.149,12.922c-0.343,1.435-0.986,2.393-1.799,3.607c-0.315,0.471-0.64,0.957-0.963,1.491
		c-0.061-4.812-0.524-9.972-0.938-14.586c-0.338-3.782-0.66-7.355-0.679-9.922l-0.204-25.996c0.658,4.862,1.657,9.66,2.993,14.371
		c0.037,0.131,0.082,0.247,0.131,0.346C289.321,1063.75,289.567,1066.948,290.051,1070.094z M368.199,941.576
		c3.011,0.37,7.646,8.234,7.294,12.374l-0.04,0.452l0.21,0.402c0.411,0.789,1.135,1.273,1.973,1.354
		c2.673,0.372,6.347,1.54,8.664,4.993c1.481,2.204,3.217,6.563,1.934,9.538c-0.704,1.634-2.329,2.676-4.83,3.094
		c-2.935,0.487-6.475,1.628-6.664,4.292c-0.116,1.633-0.487,3.704-1.599,4.304c-1.701,0.911-5.531-1.238-8.332-2.809
		c-1.791-1.005-3.483-1.954-4.944-2.416c-4.038-1.272-8.166-1.901-12.622-1.924c-0.085,0-0.169,0-0.254,0
		c-7.84,0-15.311,1.924-22.068,4.365c7.381-6.198,15.565-10.46,24.829-12.95c1.289-0.347,3.179-0.64,5.179-0.95
		c6.556-1.018,14.714-2.283,17.445-7.156c0.65-1.161,0.369-2.531-0.809-3.645c-2.486-2.346-5.057-4.772-7.116-7.529
		c-0.323-0.43-0.766-0.775-1.283-1.014C365.861,943.186,366.976,941.44,368.199,941.576z M356.231,954.459l-0.084,0.253
		c-0.577,1.714,0.218,3.313,1.934,3.892c0.154,0.052,0.314,0.096,0.477,0.129c-0.908,0.149-1.813,0.277-2.631,0.393
		c-1.554,0.218-3.02,0.425-4.099,0.705c-3.301,0.856-7.13,1.887-10.808,3.289c-9.572,3.651-18.255,9.77-26.433,18.647
		c0.137-3.194,0.079-7.078-0.55-10.84c7.467-1.895,14.402-5.139,21.123-8.284C341.915,959.482,348.876,956.225,356.231,954.459z
		 M310.826,883.747c5.555-0.455,9.247,1.758,10.156,6.065c0.943,4.46-1.526,10.656-6.618,12.431
		c-1.194,0.413-3.991,1.382-3.968,3.694l0.477,45.065c0.018,1.596,1.706,2.163,3.145,2.163h30.383
		c-3.409,1.409-6.732,2.966-9.995,4.492c-6.898,3.231-14.019,6.565-21.627,8.327c-2.263-6.489-6.499-9.844-12.391-9.844
		c-0.888,0-1.814,0.076-2.775,0.23c-5.486,0.876-9.13,3.823-11.105,8.997c-9.765-0.928-19.114-4.812-28.166-8.572
		c-2.391-0.995-4.822-2.005-7.279-2.969l31.016-0.184c0.09,0,8.959-0.102,9.005-4.586l0.481-46.405l-0.178-0.344
		c-0.41-0.794-1.133-1.279-1.811-1.328c-2.69-0.673-9.678-8.51-9.214-12.831c0.2-1.858,2.081-2.854,5.592-2.964
		c0.784-0.026,5.45-0.606,7.22-2.576c0.707-0.787,0.807-1.586,0.745-2.288c-0.314-1.671-0.087-2.961,0.695-3.947
		c1.281-1.612,4.221-2.594,8.525-2.854c2.277,2.298,3.407,4.967,3.462,8.323C306.83,883.319,308.241,883.942,310.826,883.747z
		 M315.407,817.646c1.593,1.397,3.997,1.544,5.998,1.022c6.679,2.503,11.556,8.167,12.781,14.894
		c1.095,6.024-0.827,12.961-4.784,17.264c-2.11,2.292-5.799,4.908-11.313,4.378c-1.389-0.136-2.73-0.446-4.085-0.949
		c-0.76-0.745-1.84-1.155-2.76-1.313c-8.138-4.929-10.845-16.141-8.743-24.238C304.236,822.014,308.922,818.018,315.407,817.646z
		 M305.335,737.098c1.558,3.468,2.005,7.491,1.255,11.331c-0.535,2.74-2.813,8.504-5.627,11.11c-1.257-0.283-2.67-0.212-4.023,0.203
		c-8.16-5.413-8.543-20.714-4.694-28.348c1.267-2.51,2.433-2.816,2.969-2.842c0.347,0.046,0.687,0.078,0.774,0.062
		c1.088,0.171,2.422,0.818,4.078,1.98C302.308,732.166,304.13,734.415,305.335,737.098z M324.714,699.596
		c-1.548,4.087-6.467,9.18-11.718,10.286c-2.874,0.609-5.343-0.11-7.13-1.881c-3.767-5.785,1.631-18.938,8.268-23.831
		c1.61-1.187,3.107-1.781,4.484-1.781c1.537,0,2.924,0.739,4.151,2.213C326.21,688.739,326.351,695.276,324.714,699.596z
		 M366.493,664.628c-2.274,4.551-7.826,8.181-12.915,8.444c-2.509,0.142-5.945-0.494-8.359-4.148
		c-2.201-6.982,5.721-18.854,12.883-21.745c3.925-1.592,6.885-0.329,8.786,3.745C368.781,654.985,368.625,660.365,366.493,664.628z
		 M1012.35,731.404c2.468,7.908,0.795,17.651-2.251,22.5c-1.182,1.884-2.592,2.734-4.298,2.556c-3.643-0.35-8.262-5.253-9.8-9.237
		c-1.298-3.354-1.593-7.259-0.835-10.999c0.95-4.71,5.304-13.003,10.677-13.197C1009.599,724.783,1011.455,728.531,1012.35,731.404z
		 M1003.68,676.162c2.733,6.926,2.574,16.639-0.378,23.094c-0.829,1.816-1.901,2.879-3.391,3.205
		c-4.033,0.621-10.032-5.66-11.646-9.942c-1.49-3.957-1.742-8.321-0.728-12.616c0.704-2.972,3.4-9.64,6.55-12.074
		c0.655-0.117,1.316-0.286,1.953-0.498C1000.235,669.292,1002.504,673.182,1003.68,676.162z M982.255,614.531
		c4.356,1.132,8.807,6.676,11.153,13.952c2.291,7.11,1.864,13.794-1.091,17.029c-1.578,1.73-3.363,2.344-5.41,1.893
		c-4.825-1.062-9.721-7.476-10.973-11.424c-1.24-3.913-1.097-12.557,1.953-17.748C979.066,616.23,980.531,614.985,982.255,614.531z
		 M959.237,569.872c0.868-2.3,2.19-3.861,3.936-4.647c4.353,0.344,9.255,4.822,12.581,11.532c3.616,7.301,4.222,14.767,1.505,18.58
		c-1.188,1.668-2.626,2.413-4.588,2.277c-4.673-0.337-10.534-5.917-12.359-9.462C958.39,584.417,957.05,575.655,959.237,569.872z
		 M931.936,522.279c0.874-0.364,1.639-0.818,2.239-1.333c1.639,0.501,4.064,1.692,7.232,3.555c3.162,1.861,5.946,4.519,8.277,7.899
		c2.754,3.994,8.435,13.783,1.736,18.414c-5.733,3.953-11.122-0.116-13.83-2.897C931.126,541.27,927.43,529.036,931.936,522.279z
		 M897.387,480.387c7.077-2.166,18.059,6.799,21.921,15.603c1.377,3.133,2.918,8.79-2.209,11.473
		c-6.732,3.514-13.708-1.465-17.647-6.806C894.828,494.39,892.69,485.488,897.387,480.387z M852.555,450.431
		c4.429-3.857,14.632,0.821,18.665,3.593c4.365,3.001,11.244,9.014,8.268,15.584c-0.387,0.858-0.853,1.636-1.456,2.429l-0.085,0.117
		c-4.17,5.243-11.189,3.409-16.38-0.064C854.053,467.06,848.683,457.627,852.555,450.431z M805.766,424.295
		c4.085-3.709,14.211,0.603,18.784,3.784c3.287,2.289,10.687,8.326,8.374,14.95c-0.076,0.221-0.165,0.426-0.311,0.754
		c-0.536,0.582-0.868,1.212-0.987,1.855c-1.651,2.481-4.21,3.689-7.351,3.578c-6.458-0.212-14.622-5.879-18.199-12.633
		C804.416,433.445,803.027,428.782,805.766,424.295z M753.235,400.847c3.467-3.934,10.391-2.979,15.759-0.757
		c6.644,2.751,13.437,8.65,12.947,14.172c-0.131,1.477-0.475,2.795-1.024,3.924c-0.548,0.484-1.115,1.145-1.353,1.944
		c-4.058,4.184-12.725,2.533-18.93-1.569C754.813,414.714,749.844,408.057,753.235,400.847z M669.869,359.685
		c1.508-1.219,1.733-2.446,1.636-3.292c2.044-3.167,5.974-6.583,13.078-6.041c8.432,1.551,14.897,7.852,16.469,16.054
		c1.148,6.006-0.759,12.974-4.743,17.34c-2.117,2.312-5.788,4.953-11.32,4.41c-6.754-0.667-10.696-4.921-12.813-8.374
		C668.543,373.864,667.636,365.85,669.869,359.685z M623.653,300.544c0.807,2.905,2.187,10.042-2.452,13.585
		c-1.706,1.302-3.552,1.63-5.657,1.01c-4.579-1.363-9.105-6.991-10.674-11.424c-1.691-4.781-2.059-17.681,3.452-20.91
		C614.367,283.809,621.167,291.625,623.653,300.544z M606.008,246.898c2.12,6.426,3.186,14.351-0.177,17.317
		c-1.377,1.214-2.952,1.596-4.836,1.155c-5.304-1.24-10.808-8.292-12.15-11.568c-2.085-5.089-2.659-18.944,3.031-22.264
		C598.149,232.601,604.077,241.035,606.008,246.898z M578.669,178.999c7.48,0.395,15.906,12.798,16.839,22.06
		c0.347,3.442-0.203,7.748-4.789,8.708c-6.181,1.292-12.173-4.827-14.461-9.587c-1.726-3.587-2.903-11.835-0.905-17.122
		C576.102,181.08,577.217,179.717,578.669,178.999z M554.519,129.802c0.133-0.078,0.262-0.158,0.385-0.241
		c5.607-0.283,13.486,6.056,17.815,14.395c3.164,6.093,3.479,11.515,0.844,14.507c-1.549,1.761-3.445,2.483-5.811,2.164
		c-5.534-0.714-11.739-6.746-13.751-10.757C551.246,144.378,550.141,134.157,554.519,129.802z M516.653,92.628
		c0.62-0.589,1.103-1.308,1.395-2.081c0.012-0.012,0.023-0.024,0.035-0.035c6.716-2.273,17.253,5.765,21.643,14.114
		c1.657,3.148,3.75,8.898-0.835,12.03c-5.863,4.011-13.881-0.494-17.693-4.975C517.768,107.648,514.284,98.101,516.653,92.628z
		 M469.878,63.758c4.4-3.832,12.932-1.904,19.169,2.032c5.033,3.174,10.295,8.767,8.776,14.414
		c-0.877,0.926-1.403,2.064-1.477,3.185c-3.773,5.453-11.323,3.767-16.735,0.599C472.058,79.568,466.14,71.014,469.878,63.758z
		 M436.513,59.615c3.147-0.363,8.697-0.174,10.61,5.243c1.942,5.496-0.165,9.357-2.273,11.629
		c-4.312,4.646-12.376,6.841-18.776,5.104c-3.077-0.835-6.979-2.924-8.24-8.129C418.707,67.435,427.843,60.628,436.513,59.615z
		 M390.323,83.087c4.391-1.552,7.427-0.271,9.02,3.822c2.155,5.54,0.631,12.315-3.794,16.858c-3.188,3.275-8.915,5.416-13.613,5.101
		c-2.02-0.137-4.793-0.807-6.685-3.199C373.018,97.862,382.032,86.025,390.323,83.087z M353.106,126.448
		c3.255-3.296,6.457-3.864,9.508-1.691c4.125,2.935,5.259,10.16,3.945,15.171c-1.212,4.629-6.227,10.974-11.76,13.046
		c-2.81,1.048-5.354,0.867-7.575-0.548C343.537,146.899,346.647,132.986,353.106,126.448z M349.817,208.243
		c-4.132-1.153-6.63-4.903-8.007-7.882c-3.179-6.877-3.582-16.816-0.902-22.156c1.022-2.035,2.347-3.028,4.047-3.028
		c0.088,0,0.178,0.002,0.27,0.008c4.458,0.265,10.266,6.554,11.696,10.518c1.45,4.02,1.453,12.994-1.835,18.478
		C353.71,206.476,351.939,207.841,349.817,208.243z M344.692,265.06c2.603-4.381,8.076-7.092,13.23-7.092
		c1.828,0,3.618,0.343,5.223,1.071c7.099,3.223,11.439,10.047,11.905,18.554c-0.254,4.717-1.505,8.461-3.937,11.783
		c-3.645,4.978-11.835,6.93-17.856,4.268l-0.775-0.335c-0.148-0.059-0.297-0.114-0.434-0.193
		c-6.195-3.583-10.19-10.592-10.179-17.858C341.874,271.736,342.876,268.115,344.692,265.06z M311.482,317.008
		c4.4-1.863,7.578-0.617,9.433,3.692c2.163,5.023,1.587,11.095-1.5,15.844c-2.804,4.308-8.522,7.616-13.596,7.866
		c-2.283,0.108-5.471-0.369-7.879-3.243C294.895,333.266,303.169,320.52,311.482,317.008z M259.155,353.379
		c4.114-5.518,9.483-8.88,13.352-8.449c2.266,0.273,4.036,1.872,5.258,4.755c2.183,5.145,1.63,11.31-1.442,16.088
		c-2.798,4.358-8.403,7.709-13.328,7.968c-2.298,0.114-5.598-0.382-8.152-3.438C253.065,365.91,254.742,359.3,259.155,353.379z
		 M228.651,374.887c4.399-1.851,7.559-0.629,9.403,3.642c2.164,5.016,1.586,11.072-1.511,15.801
		c-2.777,4.241-8.65,7.617-13.663,7.855c-3.257,0.166-5.898-0.925-7.812-3.211C212.059,391.092,220.349,378.385,228.651,374.887z
		 M186.727,432.86c0.48-7.518,3.732-14.464,8.09-17.283c1.47-0.953,2.909-1.123,4.416-0.515c3.337,1.34,6.379,6.303,7.284,10.129
		c0.902,3.82,0.458,8.277-1.215,12.228c-1.685,3.985-6.501,10.091-11.264,10.539c-0.361-0.014-0.74-0.008-0.972,0.015
		c-0.618-0.017-1.238-0.136-1.845-0.355C187.996,444.738,186.319,439.248,186.727,432.86z M211.148,494.789
		c-1.365,0.806-2.259,1.694-2.634,2.594c-6.371-1.768-13.872-11.655-15.608-20.91c-0.579-3.089-0.914-8.623,3.345-10.99
		c0.938-0.521,1.909-0.781,2.929-0.781c0.801,0,1.633,0.161,2.504,0.481c4.333,1.59,8.569,6.917,10.161,11.147
		C213.419,480.506,214.033,489.359,211.148,494.789z M257.614,508.502c-2.541,5.154-9.783,6.665-15.913,5.863
		c-5.593-0.733-12.511-3.784-13.606-9.969c-0.087-0.489-0.129-1.008-0.131-1.615c0.2-0.522,0.227-1.06,0.081-1.563
		c0.949-6.385,8.016-10.717,13.949-10.28c4.32,0.291,9.214,3.209,12.47,7.435C257.044,501.721,258.159,505.309,257.614,508.502z
		 M285.765,502.609c-3.334,0.617-7.759,0.347-9.882-4.449c-3.415-7.715,1.368-13.614,6.984-16.563
		c2.752-1.445,5.968-2.298,9.037-2.298c4.007,0,7.764,1.456,9.907,4.95c0.05,0.108,0.128,0.28,0.335,0.545
		c0.376,0.696,0.695,1.476,0.944,2.323C302.561,493.34,293.931,501.096,285.765,502.609z M303.228,483.598l0.005-0.004
		c0,0,0.001,0.001,0.001,0.001L303.228,483.598z M328.581,483.425c-3.809,0.484-8.693-0.222-10.28-6.435
		c-1.445-5.663,1.758-13.195,6.994-16.447c1.918-1.191,4.35-1.793,6.915-1.793c2.134,0,4.358,0.417,6.451,1.261
		c3.928,1.584,6.688,4.385,7.604,7.706C346.152,474.979,336.518,482.396,328.581,483.425z M378.136,470.733
		c-6.577-0.375-11.837-3.215-13.401-7.234c-1.08-2.778-0.218-5.179,0.698-6.702c1.89-3.151,5.767-5.657,9.427-6.094
		c4.408-0.533,9.835,1.654,13.509,5.426c2.765,2.838,4.074,6.123,3.71,9.279C390.02,468.964,384.448,471.09,378.136,470.733z
		 M435.221,481.336c-4.202,3.921-12.38,1.811-17.987-2.198c-4.67-3.34-9.201-9.194-6.598-14.702
		c0.053-0.116,0.111-0.224,0.203-0.385c0.35-0.218,0.705-0.465,1.031-0.768c0.754-0.699,1.202-1.54,1.298-2.397
		c4.327-4.023,10.712-1.954,14.965,1.136C434.225,466.452,438.754,474.704,435.221,481.336z M421.827,614.723
		c-2.224,2.332-6.074,4.966-11.768,4.215c-2.414-0.312-4.655-1.08-6.475-2.151c-0.276-0.224-0.583-0.422-0.752-0.492
		c-7.748-5.081-9.856-15.83-7.419-23.285c2.19-6.7,7.477-10.473,14.592-10.473c0.315,0,0.634,0.008,0.955,0.023
		c8.336,1.75,14.367,7.623,15.75,15.352C427.779,603.887,425.863,610.487,421.827,614.723z M468.276,560.159
		c-7.952,9.495-22.453,16.989-35.502,11.009c-12.286-5.631-16.846-16.219-14.79-34.299c2.072-15.483,9.235-28.488,20.171-36.617
		c6.947-5.165,14.415-7.948,21.078-7.948c1.391,0,2.746,0.122,4.055,0.367c5.616,1.059,10.184,4.341,13.574,9.756
		c2.739,4.375,4.751,9.797,5.666,15.268C485.617,536.146,474.924,552.218,468.276,560.159z M526.718,507.503
		c-3.081,4.751-11.902,5.448-18.415,3.336c-2.206-0.714-9.361-3.537-8.825-9.884c0.056-0.655,0.168-1.26,0.305-1.842
		c0.113-0.265,0.189-0.542,0.224-0.83c2.021-6.47,9.101-7.681,15.267-5.995C522.29,494.204,528.426,500.032,526.718,507.503z
		 M561.442,545.46c-6.286-0.551-15.098-10.492-16.836-19.18c-0.88-4.4,0.239-7.304,3.327-8.627c0.83-0.355,1.688-0.515,2.554-0.515
		c5.238,0,10.792,5.852,12.559,9.637v0.002C565.218,531.423,566.162,541.811,561.442,545.46z M570.293,569.61
		c0.11-3.933,1.706-6.088,4.745-6.405c0.254-0.027,0.506-0.04,0.757-0.04c5.628,0,10.857,6.431,12.569,11.349
		c1.461,4.195,1.578,14.092-1.948,17.724c-0.719,0.146-1.426,0.379-2.088,0.688C577.196,591.259,570.057,578.086,570.293,569.61z
		 M585.56,617.468c0.431-0.379,0.876-0.647,1.353-0.81c0.853,0.274,1.828,0.359,2.868,0.241c3.45,1.566,6.786,6.886,7.622,10.026
		c0.976,3.663,0.775,7.697-0.567,11.354c-1.477,4.024-5.471,9.881-9.422,9.881c-0.006,0-0.012,0-0.02,0
		c-0.056-0.014-0.114-0.026-0.171-0.037c-3.427-2.023-5.857-6.787-6.519-12.816C579.889,627.911,581.842,620.741,585.56,617.468z
		 M568.238,660.102c3.642-1.951,6.464-1.098,8.61,2.618c2.26,3.915,2.643,9.498,0.952,13.893
		c-1.875,4.873-6.894,9.285-11.674,10.263c-3.074,0.625-5.729-0.148-7.888-2.312c-0.209-0.302-0.472-0.583-0.787-0.841
		C554.342,676.879,561.139,663.896,568.238,660.102z M530.869,697.386c4.032-1.426,6.865,0.009,8.422,4.279
		c1.887,5.18,0.848,11.128-2.711,15.526c-2.443,3.019-6.647,5.089-10.709,5.275c-2.161,0.107-5.22-0.292-7.416-2.519
		c-0.204-0.292-0.442-0.527-0.513-0.58c-0.123-0.143-0.242-0.294-0.358-0.449C515.276,711.569,523.315,700.066,530.869,697.386z
		 M493.175,730.667c4.003-1.409,6.804-0.014,8.333,4.149c2.023,5.506,0.682,11.844-3.415,16.146
		c-2.806,2.94-7.438,4.711-11.54,4.457c-2.018-0.137-4.807-0.844-6.77-3.41C477.562,744.718,485.646,733.322,493.175,730.667z
		 M455.699,770.214c2.72-2.886,5.483-3.369,8.207-1.442c3.8,2.687,5.208,9.287,4.33,13.862c-0.851,4.442-4.926,10.583-10.024,12.761
		c-2.547,1.088-4.935,0.969-7.107-0.343C447.379,789.949,449.841,776.421,455.699,770.214z M438.213,816.398
		c0.704-0.442,1.366-0.719,2.148-0.647c0.594,0.245,1.261,0.42,1.931,0.509c3.448,1.685,6.312,6.929,6.994,9.994
		c0.797,3.581,0.373,7.69-1.159,11.276c-1.697,3.971-6.787,10.313-10.961,9.08c-3.33-2.27-5.369-7.71-5.334-14.272
		C431.87,825.178,434.435,818.773,438.213,816.398z M437.416,899.934c-0.612,0.065-1.237,0.196-1.845,0.387
		c-3.63-1.628-5.648-5.418-6.713-8.377c-2.335-6.493-2.116-14.851,0.509-19.439c1.113-1.945,2.436-2.897,4.035-2.897
		c0.128,0,0.259,0.006,0.391,0.018c3.703,0.346,8.196,5.295,9.593,9.323c1.158,3.337,1.365,6.965,0.583,10.216
		C443.151,892.581,440.595,898.081,437.416,899.934z M473.698,976.555c-2.203,2.294-6.003,4.857-11.629,4.097
		c-7.048-0.969-12.399-5.721-14.679-13.04c-2.308-7.407-0.731-15.302,3.919-19.788c1.738-0.524,3.176-1.482,3.995-2.655
		c2.201-0.957,4.745-1.366,7.314-1.278c8.47,1.685,14.618,7.649,16.044,15.565C479.745,965.459,477.75,972.33,473.698,976.555z
		 M524.414,1035.835c-4.496,3.168-14.618-1.63-18.877-5.17c-1.759-1.462-7.512-6.63-7.631-11.721
		c-0.044-1.927,0.74-3.601,2.401-5.116c2.169-1.98,4.615-2.777,7.077-2.777c4.007,0,8.058,2.111,11.023,4.665
		C524.333,1020.822,528.401,1029.558,524.414,1035.835z M572.361,1065.755c-4.431,3.835-13.006,1.811-19.283-2.225
		c-5.062-3.255-10.326-8.99-8.511-14.444c0.174-0.521,0.375-1.001,0.593-1.453c0.317-0.378,0.538-0.769,0.664-1.17
		c3.703-5.726,11.317-4.111,16.755-0.96C570.173,1049.908,576.124,1058.465,572.361,1065.755z M622.717,1084.725
		c-4.454,4.157-14.025,2.493-20.828-1.575c-2.329-1.392-9.771-6.442-7.799-12.967c1.193-3.94,3.646-6.271,7.293-6.923
		c0.682-0.123,1.394-0.181,2.126-0.181c5.806,0,12.898,3.718,17.017,9.159C622.376,1074.682,625.087,1079.524,622.717,1084.725z
		 M674.755,1094.65c-3.165,5.296-11.549,5.509-18.065,3.439c-6.409-2.036-12.615-6.739-12.024-12.655
		c0.451-4.486,2.513-7.464,6.132-8.851c5.584-2.14,13.906,0.029,19.39,5.03C672.61,1083.823,676.4,1088.44,674.755,1094.65z
		 M720.45,1101.697c-7.491,0.899-14.665-1.435-17.459-5.692c-2.081-3.17-1.398-6.359-0.46-8.476
		c1.825-4.119,6.157-7.582,10.303-8.233c4.716-0.754,11.016,1.509,15.274,5.488c3.092,2.885,4.664,6.276,4.448,9.569
		C731.079,1098.218,726.573,1100.957,720.45,1101.697z M766.367,1095.067c-3.485,0.408-9.547,0.021-11.366-7.141
		c-1.383-5.447,1.831-12.114,5.736-15.413c2.196-1.855,5.31-2.825,8.667-2.825c1.895,0,3.869,0.309,5.8,0.944
		c4.798,1.577,8.24,4.825,9.252,8.717C784.192,1087.046,774.574,1094.098,766.367,1095.067z M815.995,1077.156
		c-3.458,1.034-8.061,0.944-10.373-5.38c-1.596-4.365-0.804-10.208,1.968-14.539c2.76-4.306,8.588-7.296,14.083-7.296
		c0.241,0,0.481,0.005,0.722,0.017c4.228,0.206,7.558,2.221,9.398,5.681C833.506,1063.639,824.269,1074.675,815.995,1077.156z
		 M860.886,1048.295c-4.265,1.636-7.287,0.483-8.996-3.427c-2.449-5.607-1.094-12.571,3.372-17.328
		c2.979-3.173,8.249-5.352,12.792-5.352c0.247,0,0.493,0.006,0.737,0.02c2.029,0.11,4.822,0.751,6.757,3.154
		C877.854,1033.11,869.066,1045.157,860.886,1048.295z M902.953,1012.726c-4.484,1.619-7.604,0.207-9.279-4.184
		c-2.212-5.805-0.762-12.577,3.695-17.253c2.988-3.133,7.966-5.199,12.377-5.199c0.289,0,0.576,0.009,0.859,0.027
		c2.123,0.136,5.057,0.856,7.116,3.502C920.189,997.593,911.303,1009.713,902.953,1012.726z M938.72,969.561
		c-3.555,3.051-6.717,3.162-9.395,0.32c-3.43-3.639-4.326-9.773-3.436-13.952c1.091-5.145,6.629-12.418,12.402-14.449
		c1.03-0.361,2.02-0.542,2.976-0.542c1.697,0,3.272,0.57,4.716,1.704C950.653,948.942,945.748,963.535,938.72,969.561z
		 M948.468,932.958c-9.559-1.922-20.599,3.004-26.789,9.095c-8.384,8.249-11.878,22.721-3.516,33.025l-1.925,2.279
		c-8.158-1.104-16.554,1.564-21.364,4.277c-10.68,6.026-18.263,19.685-12.46,32.111c0.134,0.283,0.271,0.557,0.414,0.824
		l-0.947,0.938c-8.435-5.199-21.227-3.161-29.385,1.613c-9.377,5.491-16.901,17.609-13.115,29.732
		c-8.125-6.169-21.736-4.091-29.242-1.022c-9.279,3.794-17.778,12.927-17.556,23.419c-7.077-7.183-20.934-7.514-29.315-5.09
		c-9.425,2.728-18.994,10.315-20.563,20.011c-4.877-9.054-17.788-14.123-27.901-13.262c-10.757,0.923-23.03,8.351-25.105,18.936
		l-2.404-0.006c-0.003-4.137-1.639-8.186-4.792-11.805c-5.094-5.848-13.992-10.086-21.641-10.31
		c-8.923-0.218-19.841,3.5-25.288,11.168c-0.369-10.093-9.666-19.882-19.064-23.021c-9.623-3.218-23.553-1.362-31.111,8.202
		l-0.411-0.157c1.084-4.177,0.493-8.717-1.741-13.227c-3.386-6.834-10.37-12.898-17.381-15.089
		c-8.51-2.66-18.677-1.043-25.732,4.003l-3.662-3.094c1.927-3.831,2.231-8.336,0.873-13.116
		c-2.102-7.386-8.243-14.894-14.936-18.255c-7.167-3.599-16.19-3.866-23.795-0.762c-7.109-6.562-13.209-13.914-18.159-21.879
		c4.387-3.346,7.602-7.668,9.34-12.572c2.472-6.973,1.831-14.28-1.808-20.575c-3.998-6.917-11.316-11.954-19.567-13.469
		c-0.241-0.046-0.515-0.064-0.705-0.069c-0.151-0.023-0.3-0.046-0.475-0.058c-4.637-0.341-9.409,0.271-13.859,1.782
		c-5.747-9.367-9.211-19.774-10.307-30.964c10.059-5.311,13.961-17.783,12.581-27.684c-1.322-9.479-6.961-16.106-15.207-18.01
		l0.743-6.574c11.675-3.06,19.524-15.241,20.441-25.641c0.789-8.961-3.185-16.074-10.947-19.717l1.004-3.704
		c9.371,0.251,18.794-5.566,23.516-11.635c6.469-8.313,7.987-22.002-0.327-30.463l0.574-0.667
		c7.541,3.092,17.916,1.374,24.605-2.087c10.583-5.474,18.238-18.299,12.895-30.39l0.684-0.597
		c7.459,2.78,17.657,0.996,24.154-2.337c10.703-5.486,18.424-18.397,12.818-30.501c-0.014-0.029-0.026-0.058-0.041-0.087
		l3.348-3.339c7.788,2.12,17.856-0.594,24.132-4.158c10.004-5.681,16.884-18.851,10.554-30.221c-0.346-0.62-0.742-1.219-1.199-1.814
		l0.641-0.995c12.549-1.726,21.026-14.846,21.736-26.308c0.646-10.446-4.554-18.089-13.963-20.636l-2.401-11.494
		c7.022-5.681,9.997-15.972,7.237-25.425c-2.941-10.08-11.926-16.925-22.523-17.262l-4.781-7.817c4.507-6.932,4.99-16.999,1.1-24.89
		c-5.278-10.702-17.504-16.19-29.051-13.049c-0.51,0.139-1.001,0.291-1.476,0.454l-4.736-3.883c0.56-4.57-0.836-9.119-4.073-13.215
		c-4.728-5.98-12.941-10.274-20.436-10.68c-9.441-0.497-21.51,4.771-25.9,14.522l-1.736,0.46
		c-8.167-10.301-21.209-14.115-35.269-10.309l-4.49-6.134c2.137-4.582,1.909-9.753-0.675-14.671
		c-3.695-7.036-11.867-12.725-19.431-13.526c-6.699-0.722-14.367,1.04-20.185,4.58l-4.073-0.841
		c-4.285-9.316-16.571-14.782-25.708-14.469c-9.294,0.283-20.45,6.062-24.025,15.134c-6.962-5.879-19.079-6.822-27.735-4.111
		c-9.084,2.838-18.226,10.728-19.553,20.796c-7.288-3.838-16.604-3.951-22.706-2.26c-8.76,2.425-17.893,9.902-20.005,19.987
		c-5.887-5.02-14.961-7.866-22.793-6.923c-4.918,0.593-11.37,2.637-16.472,6.533c2.171-5.91,2.076-12.796-0.513-18.75
		c-4.167-9.576-13.62-14.926-24.336-13.935l-0.468-2.833c10.513-3.79,19.189-14.817,20.445-26.237
		c0.903-8.204-2.224-15.032-8.834-19.422l0.168-0.192c8.796,3.796,21.061,0.899,28.491-3.98
		c8.729-5.729,13.602-15.509,12.562-24.614c8.469,2.71,19.812-0.125,27.007-4.661c8.143-5.132,14.565-15.322,12.481-25.793
		c9.159,5.776,23.312,2.056,30.792-2.818c8.828-5.756,15.596-17.777,11.471-29.231c7.398-4.074,13.479-9.489,18.1-16.117
		c9.037,1.185,18.851-1.474,25.822-7.078c6.186-4.972,9.677-11.719,10.097-19.681c-0.836-15.527-11.984-22.56-22.64-24.095
		c0.232-12.706-1.196-25.259-4.247-37.35c8.668-6.601,10.719-18.779,8.837-28.182c-2.014-10.057-8.056-17.244-16.29-19.481
		l-0.015-2.762c8.001-1.164,16.366-6.151,21.189-12.734c6.812-9.299,8.003-24.197-1.794-33.03c-0.183-0.165-0.369-0.324-0.561-0.483
		c8.335,3.444,19.391,1.389,26.596-2.746c9.41-5.403,16.383-16.929,13.786-28.302c6.859,5.311,17.647,6.981,25.521,5.244
		c8.123-1.793,16.49-7.336,20.278-15.317c2.8,8.237,10.746,15.535,18.703,17.923c8.46,2.538,18.601,0.861,25.635-4.16l3.11,2.111
		c-3.27,8.511-0.571,19.952,6.58,27.193c7.733,7.828,19.553,10.262,29.737,6.227l2.184,2.49c-6.69,8.416-5.019,22.217,1.022,30.369
		c5.561,7.502,14.88,11.279,24.57,10.022l1.848,4.041c-8.08,5.991-11.514,18.209-7.986,29.082
		c3.167,9.76,11.433,16.794,21.27,18.232l0.684,7.636c-8.589,5.768-12.397,17.437-9.064,28.166
		c3.069,9.876,11.505,16.607,21.682,17.419l1.592,6.48c-7.096,6.292-9.943,17.212-6.92,26.948
		c3.578,11.517,14.59,18.854,26.505,17.753c11.591,13.361,24.892,25.312,39.563,35.548c-0.408,0.832-0.74,1.613-1.021,2.396
		c-2.532,7.078-1.697,14.846,2.288,21.311c4.189,6.792,11.128,11.244,19.04,12.213c9.24,1.141,19.034-1.895,25.836-7.93
		c11.311,6.522,23.463,11.57,36.16,15.017c-1.115,4.393-0.426,9.058,2.032,13.596c3.741,6.912,11.339,12.753,18.909,14.536
		c8.198,1.925,17.906-0.024,24.508-4.867l6.339,2.845c-0.838,4.323,0.079,8.949,2.69,13.465
		c3.829,6.629,10.793,12.051,17.745,13.815c7.957,2.018,17.614,0.197,24.389-4.53l2.361,1.397
		c-1.535,4.263-1.124,8.964,1.219,13.686c3.656,7.378,11.841,13.935,19.46,15.593c7.071,1.54,15.555,0.149,21.952-3.535l2.346,1.962
		c-4.844,9.607-0.049,23.312,7.68,30.092c7.217,6.327,17.684,8.31,26.966,5.17l3.141,3.969c-2.946,2.917-4.576,6.936-4.737,11.719
		c-0.253,7.47,3.275,16.115,8.578,21.026c5.91,5.468,14.607,7.614,23.432,5.837l2.385,3.921c-5.943,6.528-8.167,17.044-5.392,26.064
		c3.388,11.025,13.776,18.601,24.91,18.372l1.005,2.53c-8.304,6.082-11.738,18.126-8.353,29.819
		c3.11,10.754,11.22,17.618,21.321,18.165l2.056,7.087c-6.272,3.819-10.772,10.036-12.429,17.238
		c-1.657,7.217,0.189,15.268,4.819,21.009c3.808,4.722,9.042,7.425,14.842,7.703l1.52,6.438
		c-10.674,6.138-14.976,20.674-12.929,31.629c1.819,9.719,8.192,16.216,17.178,17.629l-0.03,8.243
		c-12.082,3.295-19.363,16.325-20.121,27.318c-0.698,10.096,3.768,18.065,12.003,21.567c-1.222,11.876-4.097,23.484-8.548,34.539
		c-15.314-0.605-28.288,8.435-31.441,21.952c-2.407,10.304,1.904,21.19,10.766,27.519
		C959.14,915.797,954.104,924.539,948.468,932.958z M996.464,889.782c-1.121,7.077-6.123,14.121-16.743,12.709
		c-11.016-1.473-15.817-11.514-14.863-20.671c0.731-7.034,5.255-14.919,15.552-14.919c0.49,0,0.99,0.017,1.502,0.053
		C992.96,869.036,997.987,880.181,996.464,889.782z M1006.922,813.387c-1.487,1.727-3.086,2.39-4.865,2.024
		c-3.631-0.74-7.467-5.616-8.773-9.706c-1.176-3.674-1.088-8.117,0.241-12.188c1.417-4.344,6.199-11.546,11.046-11.546
		c0.171,0,0.341,0.009,0.509,0.027c3.162,1.945,5.371,5.787,6.239,10.859C1012.591,800.32,1010.742,808.953,1006.922,813.387z"/>
</g>
</svg>
